<svg version="1.1" id="Layer_1" xmlns="http://www.w3.org/2000/svg" xmlns:xlink="http://www.w3.org/1999/xlink" x="0px" y="0px"
	 width="100%" viewBox="0 0 100 93" enable-background="new 0 0 100 93" xml:space="preserve">
<path fill="#000000" opacity="1.000000" stroke="none" 
	d="
M101.000000,27.999992 
	C101.000000,50.333324 101.000000,72.166649 101.000000,93.999985 
	C67.666687,93.999985 34.333370,93.999985 1.000040,93.999992 
	C1.000027,63.000027 1.000027,32.000053 1.000013,1.000061 
	C34.333294,1.000040 67.666588,1.000040 100.999939,1.000020 
	C101.000000,9.833329 101.000000,18.666658 101.000000,27.999992 
M59.500000,83.998703 
	C67.997688,83.999374 76.502464,83.793495 84.990166,84.084938 
	C89.458557,84.238380 90.968201,82.050758 90.978157,78.234222 
	C91.031578,57.739872 91.008217,37.245300 90.999054,16.750814 
	C90.997444,13.142893 88.856194,11.084059 85.552269,11.065584 
	C62.559170,10.937011 39.564617,10.936771 16.571730,11.083563 
	C13.897954,11.100633 10.991201,11.987092 10.991596,15.755713 
	C10.993781,36.583447 10.968575,57.411251 11.022017,78.238853 
	C11.031828,82.062668 12.558307,84.163849 17.012623,84.087669 
	C30.838211,83.851250 44.670383,83.999634 59.500000,83.998703 
M66.498795,85.000473 
	C50.311932,85.000473 34.125069,85.000473 17.938206,85.000473 
	C17.941010,85.215355 17.943813,85.430244 17.946617,85.645126 
	C39.929989,85.645126 61.913361,85.645126 83.896736,85.645126 
	C83.897354,85.430244 83.897980,85.215355 83.898598,85.000473 
	C78.431671,85.000473 72.964745,85.000473 66.498795,85.000473 
M26.579962,8.000000 
	C23.691702,8.000000 20.803444,8.000000 17.915184,8.000000 
	C17.921272,8.215441 17.927362,8.430882 17.933451,8.646322 
	C39.574760,8.646322 61.216064,8.646322 82.857376,8.646322 
	C82.856895,8.430882 82.856422,8.215441 82.855949,8.000000 
	C64.422905,8.000000 45.989853,8.000000 26.579962,8.000000 
M9.000857,47.500000 
	C9.000857,57.341976 9.000857,67.183952 9.000857,77.025925 
	C9.258676,77.021843 9.516493,77.017761 9.774311,77.013680 
	C9.774311,56.955070 9.774311,36.896458 9.774311,16.837849 
	C9.516493,16.834620 9.258676,16.831392 9.000857,16.828165 
	C9.000857,26.718777 9.000857,36.609386 9.000857,47.500000 
M93.000000,55.499916 
	C93.000000,62.683578 93.000000,69.867241 93.000000,77.050903 
	C93.212837,77.045166 93.425674,77.039429 93.638512,77.033691 
	C93.638512,57.743919 93.638512,38.454147 93.638512,19.164371 
	C93.425674,19.165001 93.212837,19.165630 93.000000,19.166262 
	C93.000000,30.944159 93.000000,42.722057 93.000000,55.499916 
z"/>
<path fill="#FF9A35" opacity="1.000000" stroke="none" 
	d="
M59.000000,83.998703 
	C44.670383,83.999634 30.838211,83.851250 17.012623,84.087669 
	C12.558307,84.163849 11.031828,82.062668 11.022017,78.238853 
	C10.968575,57.411251 10.993781,36.583447 10.991596,15.755713 
	C10.991201,11.987092 13.897954,11.100633 16.571730,11.083563 
	C39.564617,10.936771 62.559170,10.937011 85.552269,11.065584 
	C88.856194,11.084059 90.997444,13.142893 90.999054,16.750814 
	C91.008217,37.245300 91.031578,57.739872 90.978157,78.234222 
	C90.968201,82.050758 89.458557,84.238380 84.990166,84.084938 
	C76.502464,83.793495 67.997688,83.999374 59.000000,83.998703 
M34.808102,24.000391 
	C34.808102,24.000391 34.502651,24.172539 33.831249,24.385277 
	C31.180733,26.794996 29.797239,30.790548 24.992674,30.554918 
	C24.064173,30.509384 22.804411,33.536022 22.019375,35.289593 
	C21.243961,37.021660 20.876368,38.936298 19.782621,41.127895 
	C16.028509,47.237129 16.279274,50.314735 21.133947,55.782848 
	C21.774458,58.603870 21.483580,62.558315 23.249672,64.009613 
	C26.909250,67.016876 31.661983,68.693871 35.992821,71.688530 
	C37.004364,73.456337 38.015903,75.224144 39.456879,77.122437 
	C39.762924,77.219589 39.978268,77.416130 40.266018,78.384491 
	C40.973644,78.878830 41.681271,79.373161 42.890675,79.802284 
	C43.227924,79.804932 43.565178,79.807579 44.385395,80.200775 
	C48.208382,80.456665 49.992451,78.176140 50.970081,73.992760 
	C51.303917,69.599144 51.637753,65.205528 51.979679,60.042587 
	C52.661652,58.034939 53.343620,56.027290 54.948994,54.006901 
	C56.828087,54.110252 58.707180,54.213600 60.890461,54.818790 
	C63.308323,58.616642 65.728157,62.369686 71.238823,61.324169 
	C71.727608,61.231434 72.348183,62.150311 72.934036,62.188030 
	C74.256821,62.273216 75.700523,62.361160 76.872070,61.891647 
	C77.280769,61.727852 77.417046,59.233711 77.013870,59.012238 
	C75.918716,58.410618 74.469711,58.446838 73.158554,58.246029 
	C70.621819,57.857525 68.013710,57.720833 65.569984,57.013832 
	C63.914284,56.534809 62.488628,55.260609 60.979668,53.482841 
	C60.980968,52.345005 60.982265,51.207165 61.673294,50.026108 
	C62.133667,50.035225 62.594036,50.044342 63.746422,50.479290 
	C69.122498,50.470352 74.498581,50.461414 80.475433,50.563713 
	C81.700600,49.431812 84.098724,48.089542 83.940224,47.205791 
	C83.368950,44.020451 81.019196,44.922695 78.273705,45.493862 
	C76.324997,45.329094 74.379120,45.107731 72.427055,45.010235 
	C66.719032,44.725143 61.008541,44.489437 55.564037,43.535992 
	C58.760468,41.724174 61.956902,39.912357 65.752960,37.764366 
	C68.441162,37.766869 71.155334,37.989876 73.806442,37.677513 
	C75.104095,37.524620 76.284477,36.376385 77.517937,35.678638 
	C76.420166,34.489582 74.927742,32.100609 74.290047,32.310349 
	C70.720161,33.484489 67.356682,35.286209 63.306053,37.312023 
	C59.951260,38.249359 56.596462,39.186699 52.818310,39.631466 
	C53.218983,38.797081 53.477989,37.356224 54.042747,37.224308 
	C58.539471,36.173943 60.943909,33.268749 62.448154,28.358458 
	C64.504951,28.583107 66.597244,29.128996 68.604721,28.907194 
	C69.737808,28.782003 70.731300,27.393337 71.787674,26.573803 
	C70.839485,25.644459 69.437065,23.743965 69.015732,23.941038 
	C65.938828,25.380182 63.058949,27.240564 59.595509,29.445576 
	C57.057938,30.629980 54.520367,31.814384 51.486591,32.344395 
	C50.816143,28.235704 50.145699,24.127014 49.002007,19.553104 
	C44.666462,15.718489 42.875580,15.794543 38.411171,20.445827 
	C37.523605,21.545397 36.636036,22.644968 35.521137,23.684261 
	C35.521137,23.684261 35.155022,23.949543 34.808102,24.000391 
M68.749931,66.417747 
	C67.462158,67.228905 66.174377,68.040054 64.886597,68.851204 
	C65.040642,69.505615 65.194687,70.160027 65.348724,70.814438 
	C67.348442,70.670631 69.348167,70.526825 71.347885,70.383011 
	C70.718300,69.063774 70.088715,67.744537 68.749931,66.417747 
z"/>
<path fill="#FF8100" opacity="1.000000" stroke="none" 
	d="
M66.998306,85.000473 
	C72.964745,85.000473 78.431671,85.000473 83.898598,85.000473 
	C83.897980,85.215355 83.897354,85.430244 83.896736,85.645126 
	C61.913361,85.645126 39.929989,85.645126 17.946617,85.645126 
	C17.943813,85.430244 17.941010,85.215355 17.938206,85.000473 
	C34.125069,85.000473 50.311932,85.000473 66.998306,85.000473 
z"/>
<path fill="#FF8000" opacity="1.000000" stroke="none" 
	d="
M27.068382,8.000000 
	C45.989853,8.000000 64.422905,8.000000 82.855949,8.000000 
	C82.856422,8.215441 82.856895,8.430882 82.857376,8.646322 
	C61.216064,8.646322 39.574760,8.646322 17.933451,8.646322 
	C17.927362,8.430882 17.921272,8.215441 17.915184,8.000000 
	C20.803444,8.000000 23.691702,8.000000 27.068382,8.000000 
z"/>
<path fill="#FF8101" opacity="1.000000" stroke="none" 
	d="
M9.000857,47.000000 
	C9.000857,36.609386 9.000857,26.718777 9.000857,16.828165 
	C9.258676,16.831392 9.516493,16.834620 9.774311,16.837849 
	C9.774311,36.896458 9.774311,56.955070 9.774311,77.013680 
	C9.516493,77.017761 9.258676,77.021843 9.000857,77.025925 
	C9.000857,67.183952 9.000857,57.341976 9.000857,47.000000 
z"/>
<path fill="#FF8000" opacity="1.000000" stroke="none" 
	d="
M93.000000,54.999935 
	C93.000000,42.722057 93.000000,30.944159 93.000000,19.166262 
	C93.212837,19.165630 93.425674,19.165001 93.638512,19.164371 
	C93.638512,38.454147 93.638512,57.743919 93.638512,77.033691 
	C93.425674,77.039429 93.212837,77.045166 93.000000,77.050903 
	C93.000000,69.867241 93.000000,62.683578 93.000000,54.999935 
z"/>
<path fill="#FF9B38" opacity="1.000000" stroke="none" 
	d="
M39.027447,76.991951 
	C38.015903,75.224144 37.004364,73.456337 35.886978,70.972260 
	C34.160206,68.052940 32.539280,65.849892 30.692215,63.339497 
	C25.042326,65.016609 24.154339,64.193100 24.835890,57.245399 
	C24.907152,56.518944 23.787867,55.675697 22.962276,54.622204 
	C18.306396,49.698124 18.390327,47.029053 23.430134,40.890434 
	C24.308390,40.034019 25.317430,39.332409 25.366356,38.569241 
	C25.497770,36.519306 25.218714,34.443062 25.102650,32.377262 
	C27.370375,32.552490 29.638098,32.727722 31.923969,33.328838 
	C31.941734,34.890987 31.941349,36.027252 31.601154,37.071205 
	C30.645294,37.087727 30.029247,37.196560 29.413200,37.305389 
	C32.323410,41.264374 29.130793,43.105453 25.886688,45.153011 
	C31.709900,45.512295 33.239861,43.695847 33.020454,38.105965 
	C38.990051,37.020290 39.140530,31.886326 41.256668,28.131096 
	C42.020329,28.489244 42.513435,28.745724 43.237236,29.239277 
	C43.865952,31.245010 44.501320,33.001308 44.594273,34.785862 
	C44.684647,36.520920 44.219067,38.284931 43.848358,40.091934 
	C43.699108,40.147636 43.388813,40.075333 43.117592,40.306473 
	C41.887249,42.028446 40.928123,43.519283 39.613998,44.976746 
	C38.246464,45.482273 37.233936,46.021175 37.161598,46.059677 
	C39.012794,48.781574 40.593521,51.142754 42.216080,53.474831 
	C42.952374,54.533092 43.573154,56.104218 44.588989,56.457550 
	C48.195923,57.712124 47.902493,60.457626 47.802250,63.304451 
	C47.708809,65.958107 47.679535,68.617271 47.729778,71.271973 
	C47.803040,75.142937 46.405388,76.887863 42.253880,75.737473 
	C41.362701,75.490524 40.112343,76.539787 39.027447,76.991951 
z"/>
<path fill="#FFE8DC" opacity="1.000000" stroke="none" 
	d="
M43.388813,40.075333 
	C43.388813,40.075333 43.699108,40.147636 44.084805,40.345955 
	C45.208424,41.902706 45.946346,43.261143 46.684269,44.619576 
	C47.104931,44.467720 47.525593,44.315865 47.946255,44.164009 
	C47.946255,37.928490 47.968410,31.692869 47.939728,25.457481 
	C47.913540,19.764513 45.639320,18.556332 39.953629,21.020998 
	C39.505928,20.517038 39.228184,20.248505 38.950439,19.979971 
	C42.875580,15.794543 44.666462,15.718489 49.378387,20.237740 
	C49.790062,38.557194 49.825359,56.192009 49.645500,74.084534 
	C47.587700,76.164902 45.745060,77.987564 43.902428,79.810226 
	C43.565178,79.807579 43.227924,79.804932 42.574509,79.496780 
	C41.539867,78.698204 40.821388,78.205124 40.102905,77.712044 
	C39.978268,77.416130 39.762924,77.219589 39.242165,77.057190 
	C40.112343,76.539787 41.362701,75.490524 42.253880,75.737473 
	C46.405388,76.887863 47.803040,75.142937 47.729778,71.271973 
	C47.679535,68.617271 47.708809,65.958107 47.802250,63.304451 
	C47.902493,60.457626 48.195923,57.712124 44.588989,56.457550 
	C43.573154,56.104218 42.952374,54.533092 42.216080,53.474831 
	C40.593521,51.142754 39.012794,48.781574 37.161598,46.059677 
	C37.233936,46.021175 38.246464,45.482273 39.741226,45.295349 
	C42.346912,48.791431 44.470371,51.935535 46.593826,55.079639 
	C47.960171,51.216892 48.856258,48.076138 44.886589,45.711617 
	C43.692066,45.000103 43.850285,42.017536 43.388813,40.075333 
z"/>
<path fill="#FFE5D4" opacity="1.000000" stroke="none" 
	d="
M78.950783,45.955700 
	C81.019196,44.922695 83.368950,44.020451 83.940224,47.205791 
	C84.098724,48.089542 81.700600,49.431812 80.150681,50.476959 
	C79.825920,50.390205 79.757240,50.351917 79.458405,49.962368 
	C77.405807,49.318317 75.656212,48.881599 73.897560,48.841438 
	C66.956856,48.682903 60.013317,48.648834 53.097687,48.314079 
	C53.106483,47.719585 53.088428,47.379612 53.249092,46.961891 
	C53.690289,46.813625 53.900604,46.667847 54.522522,46.478867 
	C62.974457,46.325859 70.962616,46.140778 78.950783,45.955700 
z"/>
<path fill="#FF9E46" opacity="1.000000" stroke="none" 
	d="
M53.070374,47.039639 
	C53.088428,47.379612 53.106483,47.719585 53.067108,48.677170 
	C52.980160,49.536015 52.950645,49.777256 52.740265,50.227745 
	C52.370548,50.951199 52.181702,51.465408 52.135094,52.174492 
	C52.488056,52.615509 52.729736,52.826130 53.193050,53.149590 
	C53.626385,53.512985 53.840336,53.753551 54.025589,54.019642 
	C53.343620,56.027290 52.661652,58.034939 51.717751,60.124821 
	C51.631481,51.137630 51.807140,42.068211 51.982796,32.998787 
	C54.520367,31.814384 57.057938,30.629980 60.168610,29.262180 
	C61.158447,29.045219 61.575188,29.011656 61.991924,28.978092 
	C60.943909,33.268749 58.539471,36.173943 54.042747,37.224308 
	C53.477989,37.356224 53.218983,38.797081 52.953918,40.190155 
	C53.048660,41.172356 53.007790,41.595860 52.765778,42.297546 
	C52.733215,44.063694 52.901794,45.551666 53.070374,47.039639 
z"/>
<path fill="#FFF1E9" opacity="1.000000" stroke="none" 
	d="
M23.220955,54.886642 
	C23.787867,55.675697 24.907152,56.518944 24.835890,57.245399 
	C24.154339,64.193100 25.042326,65.016609 30.692215,63.339497 
	C32.539280,65.849892 34.160206,68.052940 35.873184,70.586914 
	C31.661983,68.693871 26.909250,67.016876 23.249672,64.009613 
	C21.483580,62.558315 21.774458,58.603870 21.408726,55.381310 
	C22.195988,54.948727 22.708469,54.917683 23.220955,54.886642 
z"/>
<path fill="#FFE7D9" opacity="1.000000" stroke="none" 
	d="
M60.960083,54.342049 
	C62.488628,55.260609 63.914284,56.534809 65.569984,57.013832 
	C68.013710,57.720833 70.621819,57.857525 73.158554,58.246029 
	C74.469711,58.446838 75.918716,58.410618 77.013870,59.012238 
	C77.417046,59.233711 77.280769,61.727852 76.872070,61.891647 
	C75.700523,62.361160 74.256821,62.273216 72.934036,62.188030 
	C72.348183,62.150311 71.727608,61.231434 71.238823,61.324169 
	C65.728157,62.369686 63.308323,58.616642 60.826721,54.632469 
	C60.762985,54.446152 60.960083,54.342049 60.960083,54.342049 
z"/>
<path fill="#FF8C00" opacity="1.000000" stroke="none" 
	d="
M51.734695,32.671593 
	C51.807140,42.068211 51.631481,51.137630 51.713707,60.509483 
	C51.637753,65.205528 51.303917,69.599144 50.757504,74.303696 
	C50.316837,74.352028 50.088749,74.089424 49.860657,73.826828 
	C49.825359,56.192009 49.790062,38.557194 49.615005,20.470348 
	C50.145699,24.127014 50.816143,28.235704 51.734695,32.671593 
z"/>
<path fill="#FFEBE0" opacity="1.000000" stroke="none" 
	d="
M31.905823,32.902954 
	C29.638098,32.727722 27.370375,32.552490 25.102650,32.377262 
	C25.218714,34.443062 25.497770,36.519306 25.366356,38.569241 
	C25.317430,39.332409 24.308390,40.034019 22.963470,40.863594 
	C21.569809,40.899277 20.949839,40.835064 20.329868,40.770847 
	C20.876368,38.936298 21.243961,37.021660 22.019375,35.289593 
	C22.804411,33.536022 24.064173,30.509384 24.992674,30.554918 
	C29.797239,30.790548 31.180733,26.794996 34.384850,24.590549 
	C35.091949,24.997219 35.245453,25.198612 35.321075,25.656898 
	C35.123550,26.250751 35.003910,26.587709 34.918602,26.943657 
	C34.952934,26.962646 34.930695,26.887396 34.559433,26.926308 
	C33.416237,28.951492 32.644306,30.937767 31.894672,32.941498 
	C31.916971,32.958958 31.905823,32.902954 31.905823,32.902954 
z"/>
<path fill="#FFECE3" opacity="1.000000" stroke="none" 
	d="
M63.922710,36.873577 
	C67.356682,35.286209 70.720161,33.484489 74.290047,32.310349 
	C74.927742,32.100609 76.420166,34.489582 77.517937,35.678638 
	C76.284477,36.376385 75.104095,37.524620 73.806442,37.677513 
	C71.155334,37.989876 68.441162,37.766869 65.219498,37.757938 
	C64.431595,37.458866 64.177155,37.166222 63.922710,36.873577 
z"/>
<path fill="#FFEDE3" opacity="1.000000" stroke="none" 
	d="
M62.220039,28.668274 
	C61.575188,29.011656 61.158447,29.045219 60.429291,29.023373 
	C63.058949,27.240564 65.938828,25.380182 69.015732,23.941038 
	C69.437065,23.743965 70.839485,25.644459 71.787674,26.573803 
	C70.731300,27.393337 69.737808,28.782003 68.604721,28.907194 
	C66.597244,29.128996 64.504951,28.583107 62.220039,28.668274 
z"/>
<path fill="#FFE1CF" opacity="1.000000" stroke="none" 
	d="
M63.614380,37.092800 
	C64.177155,37.166222 64.431595,37.458866 64.919685,37.926025 
	C61.956902,39.912357 58.760468,41.724174 55.330463,43.743599 
	C54.871338,43.834866 54.634132,43.802170 54.439861,43.593239 
	C53.985275,42.895367 53.476097,42.457367 52.966919,42.019367 
	C53.007790,41.595860 53.048660,41.172356 53.165600,40.436440 
	C56.596462,39.186699 59.951260,38.249359 63.614380,37.092800 
z"/>
<path fill="#FFE4D4" opacity="1.000000" stroke="none" 
	d="
M20.056244,40.949371 
	C20.949839,40.835064 21.569809,40.899277 22.656441,40.990334 
	C18.390327,47.029053 18.306396,49.698124 22.962276,54.622208 
	C22.708469,54.917683 22.195988,54.948727 21.298904,54.998318 
	C16.279274,50.314735 16.028509,47.237129 20.056244,40.949371 
z"/>
<path fill="#FF9C40" opacity="1.000000" stroke="none" 
	d="
M60.969875,53.912445 
	C60.960083,54.342049 60.762985,54.446152 60.674629,54.381550 
	C58.707180,54.213600 56.828087,54.110252 54.487289,54.013271 
	C53.840336,53.753551 53.626385,53.512985 53.047653,52.957809 
	C52.499695,52.373802 52.260124,52.161114 51.992859,51.979618 
	C52.181702,51.465408 52.370548,50.951199 53.192360,50.222672 
	C56.211407,50.028675 58.597485,50.049000 60.983562,50.069328 
	C60.982265,51.207165 60.980968,52.345005 60.969875,53.912445 
z"/>
<path fill="#FFF0E8" opacity="1.000000" stroke="none" 
	d="
M69.104530,66.421524 
	C70.088715,67.744537 70.718300,69.063774 71.347885,70.383011 
	C69.348167,70.526825 67.348442,70.670631 65.348724,70.814438 
	C65.194687,70.160027 65.040642,69.505615 64.886597,68.851204 
	C66.174377,68.040054 67.462158,67.228905 69.104530,66.421524 
z"/>
<path fill="#FF8D00" opacity="1.000000" stroke="none" 
	d="
M61.328430,50.047718 
	C58.597485,50.049000 56.211407,50.028675 53.373230,50.013420 
	C52.950645,49.777256 52.980160,49.536015 53.040253,48.931686 
	C60.013317,48.648834 66.956856,48.682903 73.897560,48.841438 
	C75.656212,48.881599 77.405807,49.318317 78.929886,49.864861 
	C73.484940,50.122421 68.269676,50.087940 63.054409,50.053459 
	C62.594036,50.044342 62.133667,50.035225 61.328430,50.047718 
z"/>
<path fill="#FF9301" opacity="1.000000" stroke="none" 
	d="
M54.385269,43.853111 
	C54.634132,43.802170 54.871338,43.834866 55.197952,44.092793 
	C61.008541,44.489437 66.719032,44.725143 72.427055,45.010235 
	C74.379120,45.107731 76.324997,45.329094 78.612244,45.724781 
	C70.962616,46.140778 62.974457,46.325859 54.594414,45.829193 
	C54.263443,44.716003 54.324356,44.284557 54.385269,43.853111 
z"/>
<path fill="#FF9B38" opacity="1.000000" stroke="none" 
	d="
M49.645496,74.084534 
	C50.088749,74.089424 50.316837,74.352028 50.761223,74.758141 
	C49.992451,78.176140 48.208382,80.456665 44.143909,80.005501 
	C45.745060,77.987564 47.587700,76.164902 49.645496,74.084534 
z"/>
<path fill="#FFEBE0" opacity="1.000000" stroke="none" 
	d="
M38.680805,20.212898 
	C39.228184,20.248505 39.505928,20.517038 39.929279,21.339884 
	C40.079411,22.531378 40.083935,23.168560 40.007652,24.268272 
	C39.871349,25.038868 39.815849,25.346931 39.399921,25.570871 
	C37.825977,25.457834 36.612469,25.428921 35.398956,25.400009 
	C35.245453,25.198612 35.091949,24.997219 34.720551,24.484180 
	C34.502651,24.172539 34.808102,24.000391 35.081802,23.951538 
	C35.355503,23.902685 35.748470,23.744539 35.748470,23.744539 
	C36.636036,22.644968 37.523605,21.545397 38.680805,20.212898 
z"/>
<path fill="#FF9C40" opacity="1.000000" stroke="none" 
	d="
M63.400414,50.266373 
	C68.269676,50.087940 73.484940,50.122421 79.228729,50.254410 
	C79.757240,50.351917 79.825920,50.390205 79.850288,50.421341 
	C74.498581,50.461414 69.122498,50.470352 63.400414,50.266373 
z"/>
<path fill="#FF9B38" opacity="1.000000" stroke="none" 
	d="
M40.184464,78.048264 
	C40.821388,78.205124 41.539867,78.698204 42.323624,79.529388 
	C41.681271,79.373161 40.973644,78.878830 40.184464,78.048264 
z"/>
<path fill="#FFE8DC" opacity="1.000000" stroke="none" 
	d="
M35.634804,23.714401 
	C35.748470,23.744539 35.355503,23.902685 35.255264,23.926113 
	C35.155022,23.949543 35.521137,23.684261 35.634804,23.714401 
z"/>
<path fill="#FF9A35" opacity="1.000000" stroke="none" 
	d="
M40.088455,23.805742 
	C40.083935,23.168560 40.079411,22.531378 40.099236,21.575310 
	C45.639320,18.556332 47.913540,19.764513 47.939728,25.457481 
	C47.968410,31.692869 47.946255,37.928490 47.946255,44.164009 
	C47.525593,44.315865 47.104931,44.467720 46.684269,44.619576 
	C45.946346,43.261143 45.208424,41.902706 44.234055,40.290253 
	C44.219067,38.284931 44.684647,36.520920 44.594273,34.785862 
	C44.501320,33.001308 43.865952,31.245010 43.269806,28.859381 
	C42.077271,26.763523 41.082867,25.284632 40.088455,23.805742 
z"/>
<path fill="#FF9A35" opacity="1.000000" stroke="none" 
	d="
M31.940966,37.163517 
	C31.941349,36.027252 31.941734,34.890987 31.923969,33.328838 
	C31.905823,32.902954 31.916971,32.958958 32.262333,32.870926 
	C33.382027,30.817726 34.156357,28.852560 34.930695,26.887394 
	C34.930695,26.887396 34.952934,26.962646 35.310574,26.966526 
	C37.435482,27.318033 39.202751,27.665663 40.983795,28.006063 
	C40.997566,27.998837 40.986107,28.029428 40.986107,28.029428 
	C39.140530,31.886326 38.990051,37.020290 32.852882,37.986877 
	C32.099995,37.688835 31.985220,37.442616 31.940966,37.163517 
z"/>
<path fill="#FF9930" opacity="1.000000" stroke="none" 
	d="
M43.117592,40.306473 
	C43.850285,42.017536 43.692066,45.000103 44.886589,45.711617 
	C48.856258,48.076138 47.960171,51.216892 46.593826,55.079639 
	C44.470371,51.935535 42.346912,48.791431 40.096230,45.328724 
	C40.928123,43.519283 41.887249,42.028446 43.117592,40.306473 
z"/>
<path fill="#FFDFCD" opacity="1.000000" stroke="none" 
	d="
M31.601154,37.071205 
	C31.985220,37.442616 32.099995,37.688835 32.452866,38.021271 
	C33.239861,43.695847 31.709900,45.512295 25.886688,45.153011 
	C29.130793,43.105453 32.323410,41.264374 29.413200,37.305389 
	C30.029247,37.196560 30.645294,37.087727 31.601154,37.071205 
z"/>
<path fill="#FFE8DC" opacity="1.000000" stroke="none" 
	d="
M40.007656,24.268272 
	C41.082867,25.284632 42.077271,26.763523 43.039108,28.622307 
	C42.513435,28.745724 42.020329,28.489244 41.256668,28.131096 
	C40.986107,28.029428 40.997566,27.998837 40.941353,27.730648 
	C40.510208,26.859972 40.135281,26.257483 39.760353,25.654995 
	C39.815849,25.346931 39.871349,25.038868 40.007656,24.268272 
z"/>
<path fill="#FF9A35" opacity="1.000000" stroke="none" 
	d="
M54.439857,43.593239 
	C54.324356,44.284557 54.263443,44.716003 54.130642,45.797127 
	C53.900604,46.667847 53.690289,46.813625 53.249092,46.961891 
	C52.901794,45.551666 52.733215,44.063694 52.765778,42.297546 
	C53.476097,42.457367 53.985275,42.895367 54.439857,43.593239 
z"/>
<path fill="#FF9A35" opacity="1.000000" stroke="none" 
	d="
M52.135094,52.174492 
	C52.260124,52.161114 52.499695,52.373802 52.856968,52.809464 
	C52.729736,52.826130 52.488056,52.615509 52.135094,52.174492 
z"/>
<path fill="#FF9B38" opacity="1.000000" stroke="none" 
	d="
M34.559429,26.926306 
	C34.156357,28.852560 33.382027,30.817726 32.240032,32.853470 
	C32.644306,30.937767 33.416237,28.951492 34.559429,26.926306 
z"/>
<path fill="#FF9B38" opacity="1.000000" stroke="none" 
	d="
M39.399921,25.570871 
	C40.135281,26.257483 40.510208,26.859972 40.927578,27.737875 
	C39.202751,27.665663 37.435482,27.318033 35.276241,26.947536 
	C35.003910,26.587709 35.123550,26.250751 35.321075,25.656900 
	C36.612469,25.428921 37.825977,25.457834 39.399921,25.570871 
z"/>
</svg>