<svg width="290.283" height="289.122" data-bbox="49.338 90.916 413.325 330.167" style="overflow:visible" viewBox="0 0 290.283 289.122"><g data-uid="o-5eb0fb2e4da842368ae9033af1eb7ae0" transform="translate(-35.356 -35.866)scale(1.00101)"><svg width="360" height="360" data-uid="o-d48974a6707c4758af35c2e4fa0a9f2a" viewBox="0 0 360 360"><path fill="#ffda79" fill-rule="evenodd" d="M96.57 62.44c19.63 4.13 39.28 6.94 59.01 8.46l-3.08-3.11a2.41 2.41 0 0 1-.59-2.51c.29-.9 1.02-1.53 1.95-1.68l12.3-2.06a8.47 8.47 0 0 0 5.05-3.86l5.53-10.71c.44-.84 1.25-1.34 2.2-1.34s1.77.49 2.2 1.34l5.44 10.45a8.5 8.5 0 0 0 5.8 4.27l.6.1 11.04 1.81c.94.15 1.66.77 1.96 1.68.3.9.08 1.83-.59 2.51l-4.24 4.31c22.23-.54 44.6-2.7 67.18-6.49-24.41-18.68-54.92-29.78-88.03-29.78-31.18-.01-60.07 9.84-83.73 26.61" class="st0" clip-rule="evenodd" data-uid="o-0ecbb8d3de5c48e7a20ae0a9b105431c"/><path fill="#f89603" fill-rule="evenodd" d="m61.9 97.13 30.38 1.84c13.56-10.29 32.77-10.26 46.38.89.8.66 1.58 1.35 2.32 2.06L308 112.06a145.7 145.7 0 0 0-30.11-38.5l-73.78-4.48-7.53 7.65a8.52 8.52 0 0 0-1.7 6.35l1.77 11.6c.15.94-.22 1.82-.99 2.38s-1.72.64-2.57.21l-10.27-5.13v.01a8.47 8.47 0 0 0-7.21-.32l-10.81 5.43c-.85.43-1.8.35-2.57-.21a2.43 2.43 0 0 1-1-2.37l1.9-12.68c.01-1.91-.61-3.76-1.77-5.27l-8.87-8.96c-.51-.52-.76-1.18-.72-1.87L96.4 62.56a145.8 145.8 0 0 0-34.5 34.57" class="st1" clip-rule="evenodd" data-uid="o-b73679b4748543d79d37ffffd1b8a9f7"/><path fill="#8baf44" fill-rule="evenodd" d="m151.62 136.35 5.83.53c9.27-12.44 18.25-27.39 18.25-27.39s.78-1.88 2.36-3.27c1.54-1.34 3.85-2.23 6.95-.52 4.78 2.63 1.78 11.94-.58 18.16-.76 2-1.44 3.68-1.79 4.72-.41 1.24-2.8 5.04-5.89 10.05l28.43 2.59-2.86-2.89c-.53-.54-.71-1.28-.47-2 .23-.72.81-1.22 1.56-1.34l9.82-1.64a6.76 6.76 0 0 0 4.03-3.08l4.42-8.55c.35-.67.99-1.07 1.75-1.07.75 0 1.4.39 1.75 1.07l4.34 8.34a6.84 6.84 0 0 0 4.63 3.41l.48.08 8.82 1.44c.75.13 1.33.62 1.56 1.34s.07 1.46-.47 2l-5.85 5.94 83.75 7.63a144.3 144.3 0 0 0-13.43-37.98L136.48 98.21c.74.52 1.46 1.07 2.17 1.65a37.34 37.34 0 0 1 12.08 18.01 37.7 37.7 0 0 1 .89 18.48M45.77 126.7l31.68 2.89c-.18-9.36 3.12-18.78 9.93-26.17 3.44-3.73 7.48-6.6 11.83-8.6l-33.32-3.04a144.6 144.6 0 0 0-20.12 34.92" class="st2" clip-rule="evenodd" data-uid="o-875b83c4b552476a8d211edd91d790a0"/><path fill="#fdc601" fill-rule="evenodd" d="m261.4 60.59-60.27 11.53-4.54 4.62a8.52 8.52 0 0 0-1.7 6.35l1.77 11.6c.15.94-.22 1.82-.99 2.38s-1.72.64-2.57.21l-10.27-5.13v.01a8.47 8.47 0 0 0-7.21-.32l-10.81 5.43c-.85.43-1.8.35-2.57-.21a2.43 2.43 0 0 1-1-2.37l1.9-12.68c.01-.87-.12-1.73-.37-2.55L60.59 99.01a144.7 144.7 0 0 0-17.33 34.38c1.6 1.59 3.4 3.35 5.47 5.15L77.67 133c-1.17-10.45 2.06-21.31 9.7-29.59 13.46-14.57 35.93-16.13 51.28-3.56a37.34 37.34 0 0 1 12.08 18.01c.11.36.21.73.32 1.1l21.3-4.08c2.07-3.29 3.34-5.4 3.34-5.4s.78-1.88 2.36-3.27c1.54-1.34 3.85-2.23 6.95-.52 2.04 1.13 2.66 3.48 2.52 6.29L294.55 91.5a145.6 145.6 0 0 0-33.15-30.91" class="st3" clip-rule="evenodd" data-uid="o-d1a46eb10d3c4b38adc11a98cea93c09"/><path fill="#1a8d64" fill-rule="evenodd" d="M38.68 149.68c-2.11 9.63-3.25 19.61-3.35 29.85a619 619 0 0 0 43.05 1.9c-7.42-6.28-16.38-12.9-24.26-18.95-6.26-4.79-11.84-9.22-15.44-12.8m42.34-4.83c-8.31-.03-16.65-.26-25.02-.66 7.78 5.27 18.09 9.85 31.9 10.63a37.4 37.4 0 0 1-6.88-9.97m73.88-4.64c-1.49.2-2.98.39-4.48.57-1.18 3.51-2.9 6.9-5.19 10.05 2.86-2.36 6.23-6.2 9.67-10.62M218.43 128a545 545 0 0 1-40.48 8.68c-7.03 11.36-19.32 31.03-18.84 39.9 25.28-3.29 50.33-8.25 75.21-14.9l-7.81-3.9v.01a6.83 6.83 0 0 0-5.76-.26l-8.62 4.33c-.67.34-1.44.28-2.04-.17-.62-.44-.91-1.15-.8-1.89l1.52-10.12c.01-1.52-.49-3-1.42-4.2l-7.08-7.15c-.53-.54-.71-1.28-.47-2 .23-.72.81-1.22 1.56-1.34l9.82-1.64a6.76 6.76 0 0 0 4.03-3.08zm82.45-27.75c-24.41 10.25-48.94 18.73-73.65 25.44l2.28 4.38a6.84 6.84 0 0 0 4.63 3.41l.48.08 8.82 1.44c.75.13 1.33.62 1.56 1.34s.07 1.46-.47 2l-7.03 7.15a6.8 6.8 0 0 0-1.36 5.06l1.42 9.25c.05.36.01.72-.11 1.03 26.78-7.31 53.37-16.57 79.82-27.79a145.3 145.3 0 0 0-16.39-32.79" class="st4" clip-rule="evenodd" data-uid="o-6ee5ba865a9f430ca9090b90a543f768"/><path fill="#1ec68b" fill-rule="evenodd" d="m78.92 118.38-27.24-4.51a144.4 144.4 0 0 0-8.41 19.52c3.17 3.17 7.19 6.99 12.34 10.53 7.82 5.37 18.25 10.1 32.29 10.9-9.59-9.97-12.6-23.95-8.98-36.44M161 131.97l-8.67-1.44a37.3 37.3 0 0 1-7.1 20.31c4.55-3.78 10.4-11.28 15.77-18.87m-.42 37.03 78.77 13.04a31 31 0 0 1 3.9-3.84c12.3-10.08 30.32-8.83 41.11 2.86 2.61 2.82 4.58 6.03 5.9 9.41l34.24 5.67c.53-5.03.8-10.15.8-15.32 0-7.45-.56-14.77-1.65-21.92l-85.45-14.14-.73.74a6.8 6.8 0 0 0-1.36 5.06l1.42 9.25c.11.75-.18 1.45-.79 1.9s-1.37.51-2.05.17l-8.19-4.09v.01a6.83 6.83 0 0 0-5.76-.26l-8.62 4.33c-.67.34-1.44.28-2.04-.17-.62-.44-.91-1.15-.8-1.89l1.52-10.12c.01-1.52-.49-3-1.42-4.2l-6.53-6.6-23.85-3.95c-5.26 8.59-14.77 23.5-18.42 34.06" class="st5" clip-rule="evenodd" data-uid="o-bca8f7e1307d4e0dba3b320fab4bab9f"/><path fill="#18b27e" fill-rule="evenodd" d="m76.72 180.03-41.26 7c.53 12.5 2.64 24.6 6.14 36.08l55.52-9.41c-.79-6.7-2.12-12.55-4.29-16.78-1.07-2.08-2.84-4.38-5.14-6.83-2.95-3.16-6.75-6.56-10.97-10.06m242.44-41.11-82.66 14.02 1.05 6.87c.11.75-.18 1.45-.79 1.9s-1.37.51-2.05.17l-8.19-4.09v.01a6.83 6.83 0 0 0-5.76-.26l-8.62 4.33c-.67.34-1.44.28-2.04-.17-.62-.44-.91-1.15-.8-1.89l.35-2.32-47.75 8.1c-2.1 5.02-3.27 9.41-2.61 12.23.92 3.97 3.13 9.48 5.79 15.74 1.09 2.57 2.27 5.26 3.47 8.03l37.23-6.31c-1.65-4.76-2.98-10.58.32-12.4 2.49-1.37 4.34-.66 5.57.42 1.28 1.11 1.9 2.62 1.9 2.62s1.81 3.01 4.55 7.27l16.23-2.75c1.82-4.63 4.81-8.87 8.92-12.24 12.3-10.08 30.32-8.83 41.11 2.86.24.26.47.52.7.78l40.13-6.81c-.51-12.51-2.59-24.61-6.05-36.11" class="st6" clip-rule="evenodd" data-uid="o-46914f2e33274149bbc874f4a7041189"/><path fill="#1b80a5" fill-rule="evenodd" d="m234.83 213.63-2.08.05c1.86 2.2 3.64 4.08 5.22 5.39-1.26-1.73-2.3-3.56-3.14-5.44m86.59-10.25a515 515 0 0 1-29.97 5.31 30.03 30.03 0 0 1-7.5 13.58c11.25-.64 19.62-4.43 25.89-8.74 5.11-3.51 8.82-7.37 11.58-10.15m-32.6 42.6c7.56-.99 15.15-2.15 22.75-3.48 3.14-6.67 5.79-13.62 7.9-20.8-2.44 2.06-5.33 4.32-8.43 6.7-7.35 5.62-15.84 11.88-22.22 17.58m-106.12 2.88c13.48 1.07 27.01 1.58 40.6 1.54 1.57-3.81 2.83-7.15 3.42-9.71 1.23-5.3-5.51-17.45-11.26-26.94-14.36-.2-28.66-1.07-42.88-2.61 1.33 3.24 2.61 6.5 3.76 9.71 1.01 2.82 1.91 5.59 2.66 8.26 2.1 7.49 3.27 14.21 3.7 19.75m-62.79-9.07c14.63 3.08 29.34 5.5 44.13 7.24-.95-1.27-1.91-2.58-2.88-3.9-5.71-7.78-11.69-16.21-16.56-22.53-14.33-18.64-21.55 1.48-23.67 13.49-.31 1.76-.65 3.67-1.02 5.7m-80.32-23.98c19.36 7.51 38.87 13.8 58.52 18.87.01-5.87-.14-11.66-.59-17.03-.7-8.35-2.11-15.69-4.68-20.73-.33-.64-.72-1.3-1.18-1.98-18.88-5.55-37.61-12.33-56.2-20.33-.09 2.06-.14 4.13-.14 6.2 0 12.07 1.49 23.79 4.27 35" class="st7" clip-rule="evenodd" data-uid="o-e00dee3dbdbf4bdfa8bb59b3f033b13e"/><path fill="#ec3b71" fill-rule="evenodd" d="m275.96 276.66 14.07-1.05a145 145 0 0 0 23.94-38.49l-15.88 1.18c-5.4 4.23-10.45 8.45-13.99 12.23-1.84 1.96-3.27 3.81-4.12 5.48-2.07 4.04-3.19 9.93-3.76 16.62-.1 1.32-.19 2.67-.26 4.03m-41.03 3.06 20.54-1.53c-2.86-8.01-8.29-14.51-17-3.19-1.1 1.45-2.3 3.04-3.54 4.72M85.88 290.83l125.11-9.33c.58-2.04 1.28-4.16 2.04-6.3 2.65-7.4 6.18-15.18 9.03-21.88 1.54-3.59 2.87-6.88 3.78-9.63l-43.33 3.23c.91 8.81.05 15.03-1.95 17.22-1.66 1.83-8.08-5.84-15.63-15.91l-47.25 3.52c-2.68 14.06-5.81 28.91-7.82 33.22-4.1 8.83-13.89 5.04-12.94-16.73.2-4.53.46-9.63.69-14.99l-41.11 3.07a146.2 146.2 0 0 0 29.38 34.51" class="st8" clip-rule="evenodd" data-uid="o-f0d517d90493491e9c8f520f2cdbfee4"/><path fill="#343380" fill-rule="evenodd" d="M275.79 289.93c6.46-5.66 12.41-11.87 17.78-18.58l-16.81-3.53c-.21 1.55-.39 3.16-.53 4.82-.45 5.41-.53 11.36-.44 17.29m-51.44 4.3 35.95 7.54.09-.06c-1.11-5.73-2.14-11.42-2.92-15.89-1.7-9.63-7.49-25.76-18.98-10.82-3.9 5.07-8.7 11.83-13.28 18.07zm-110.6-23.2 95.05 19.93c.5-2.83 1.19-5.89 2.1-9.14.6-2.14 1.33-4.37 2.14-6.62 2.29-6.4 5.24-13.08 7.84-19.1l-38.24-8.02c.72 8.2-.15 13.97-2.06 16.06-1.91 2.1-10.07-8.3-19.03-20.49l-40.8-8.56c-1.81 10.21-4.52 24.92-7 35.94m-55.27-11.59 38.49 8.07c.47-10.68 1.29-24.31 1.12-37.17L40.2 218.21a144.4 144.4 0 0 0 18.28 41.23" class="st9" clip-rule="evenodd" data-uid="o-0f9187ddc1f84cd19368d13c8e778d4f"/><path fill="#a4136e" fill-rule="evenodd" d="M254.86 276.59c-6.69 1.18-13.37 2.28-20.06 3.31-3.05 4.13-6.38 8.78-9.6 13.17-7.29 9.95-14.02 18.57-15.57 16.85-2.44-2.69-2.76-12.94.87-26.64-41.6 5.2-83.2 7.38-125.71 6.61 21.19 18.57 47.84 31.07 77.22 34.77 21.88-1.44 43.65-3.67 65.45-6.7 11.72-4.03 22.77-9.52 32.91-16.25-1.11-5.73-2.14-11.42-2.92-15.89-.48-2.84-1.34-6.23-2.59-9.23m41.01-8.19c-6.55 1.46-13.1 2.85-19.63 4.16v.08c-.45 5.42-.53 11.37-.44 17.29 7.39-6.48 14.12-13.69 20.07-21.53" class="st10" clip-rule="evenodd" data-uid="o-2a811d97fc924377bf01c278736bd504"/><path fill="#3aa9b9" fill-rule="evenodd" d="M119.28 243.23c13.4-.53 26.73-1.42 40-2.67-5.13-7.03-10.35-14.34-14.69-19.97-14.33-18.64-21.55 1.48-23.67 13.49-.48 2.75-1.03 5.85-1.64 9.15M96.12 207.2c-19.37.2-38.91-.36-58.69-1.67 2.25 13.13 6.28 25.67 11.81 37.34 16.38.8 32.61 1.11 48.72.92.24-8.87.24-17.98-.45-26.13-.31-3.73-.76-7.25-1.39-10.46m110.46-9.67c-12.49 2.08-25 3.82-37.54 5.23 2.54 5.9 5.16 12.1 7.3 18.09 1.01 2.82 1.91 5.59 2.66 8.26.9 3.18 1.62 6.21 2.19 9.08 14.6-1.8 29.15-4.03 43.68-6.7-4.67-11.54-16.02-27.69-16.88-30.26-.28-.82-.81-2.13-1.41-3.7m27.03-5.03c-4.72.97-9.44 1.89-14.15 2.77 5.31 8.13 13.09 19.29 18.52 23.8-5.73-7.9-7.07-17.7-4.41-26.43zm91.11-24.76a802 802 0 0 1-41.02 12.63q.33.33.66.69c9.3 10.07 10.44 24.87 3.53 36.11 9.15-2.48 18.3-5.13 27.47-7.96 3.8-3.33 6.54-6.47 8.56-8.24.92-6.59 1.39-13.31 1.39-20.15 0-4.42-.2-8.78-.59-13.08" class="st11" clip-rule="evenodd" data-uid="o-0bf8a854ce344b249bfe1f97acc551b9"/></svg></g></svg>
